<?xml version="1.0" encoding="utf-8"?>
<!-- Generator: Adobe Illustrator 22.0.0, SVG Export Plug-In . SVG Version: 6.00 Build 0)  -->
<svg version="1.1" id="Layer_1" xmlns="http://www.w3.org/2000/svg" xmlns:xlink="http://www.w3.org/1999/xlink" x="0px" y="0px"
	 viewBox="0 0 425.2 187.5" style="enable-background:new 0 0 425.2 187.5;" xml:space="preserve">
<style type="text/css">
	.st0{fill:none;stroke:#FFFFFF;stroke-width:1.2662;stroke-miterlimit:10;}
	.st1{fill:#FFFFFF;}
</style>
<rect x="1" y="0.9" class="st0" width="420.9" height="185.9"/>
<path class="st1" d="M63,147.3c-1.5,0-3.1-0.7-4-1.7c-0.9-1-1.6-2.4-1.6-3.8V43.6c0-2.5,1.5-4.2,2.6-4.8c1.1-0.6,2.2-0.8,3.4-0.8
	c4.3,0.1,6.2,6.3,6.9,8.1l29.8,70.2V42.5c0-1.5,1.8-4.5,5-4.5c3.3,0,5,3.1,5,4.5v99.8c0,1.5-0.8,3.2-1.8,4c-1,0.7-2,1.1-3.3,1.1
	c-1.3,0-2.4-0.3-3.5-1.4c-1.1-1.1-2-3.3-2.7-4.9L68.6,70.6v71.1c0,1.5-0.7,3-1.6,3.9C66,146.7,64.6,147.3,63,147.3z"/>
<path class="st1" d="M135.4,147.8c-2.4,0-4-0.7-4.8-1.6c-0.9-0.9-2.3-2.5-2.3-5.7V50.1c0-4.4-0.7-7.5,1.9-10.1
	c2.8-2.8,6.3-1.8,10.8-1.9h34.5c0.3,0,2.1-0.1,3.9,1.3c1,0.8,2,3,2,4.3c0,1.5-0.6,3.1-1.9,4.2c-2.2,1.9-3.9,1.6-5.1,1.6h-34.6V93
	h25.9c1.2,0,3.4,1.1,4,2.2c0.6,1.1,1.4,2.3,1.1,4.3c-0.2,1.2-0.5,2.6-1.6,3.5c-0.9,0.8-2.2,1.6-3.5,1.6h-25.9v31.7h34.6
	c2.5,0,3.6-0.4,5.7,1.7c0.9,0.9,1.7,2.5,1.6,4.1c-0.1,1.3-0.6,2.7-1.7,3.8c-1.7,1.9-4.2,1.7-5.6,1.7H135.4z"/>
<g>
	<path class="st1" d="M348,49.7h-11.7v87H348c4.7,0,8.4-1.7,11-5.2c2.7-3.5,2.9-8.8,2.9-16.2V71c0-7.3-0.3-12.7-2.9-16.2
		C356.3,51.4,352.7,49.7,348,49.7z"/>
	<path class="st1" d="M260.9-0.4v187.5h163.3V-0.4H260.9z M300.5,142.3c0,1.9-0.7,3.4-1.7,4.3c-1.1,1-2.3,1.5-3.8,1.5
		c-1.6,0-3-0.8-3.8-1.7c-0.9-0.9-1.5-2.5-1.5-3.8V64.1c-0.1-1.6,0.8-3.3,1.7-4.1c0.9-0.7,2-1.4,3.6-1.4c1.6,0,2.8,0.6,3.6,1.3
		c1,0.9,1.8,2.4,1.8,4.2V142.3z M299.8,50.5c-1.3,1.3-2.9,1.9-4.7,1.9c-1.9,0-3.5-0.6-4.8-1.9c-1.3-1.3-1.9-2.7-1.9-4.3
		c0-1.6,0.6-3.1,1.9-4.3c1.3-1.2,2.9-1.8,4.8-1.8c1.8,0,3.4,0.6,4.7,1.8c1.3,1.2,1.9,2.6,1.9,4.3C301.7,47.8,301.1,49.2,299.8,50.5z
		 M373.6,115.4c0,8-1.1,14.4-3.2,19.2c-2.2,4.8-5.6,8.2-9.3,10.4c-3.7,2.2-7.3,3.2-13.5,3.2h-19.7c0.2,0-1.2-0.5-2-1.3
		c-0.8-0.9-1.2-1.8-1.2-3V42.6c0-1.2,0.4-2.2,1.2-3.1c0.8-0.9,1.8-1.3,3.1-1.3H349c4.6,0,8.8,1.1,12.5,3.2c3.7,2.2,7.1,6.1,9.3,10.9
		c2.2,4.8,2.8,10.6,2.8,18.7V115.4z"/>
</g>
<g>
	<path class="st1" d="M210.4,135.6c-2.8-0.6-5.4-2.9-6.6-4.7c-2.6-3.8-2.1-8.1-2.1-15V71c0-6.9-0.6-11,2.6-15.7
		c1.9-2.7,4.1-3.7,6.1-4.3V38c-3.4,0.3-6.6,1.3-9.4,2.9c-3.5,2-6.3,5.3-8.4,9.8c-2.1,4.5-3.1,10.6-3.1,18.2V117
		c0,7.6,1,13.6,3.1,18.2c2.1,4.5,4.9,7.8,8.4,9.8c2.8,1.7,6,2.6,9.4,2.9V135.6z"/>
</g>
<g>
	<path class="st1" d="M215.8,135.6c2.8-0.6,5.4-2.9,6.6-4.7c2.6-3.8,2.1-8.1,2.1-15V71c0-6.9,0.6-11-2.6-15.7
		c-1.9-2.7-4.1-3.7-6.1-4.3V38c3.4,0.3,6.6,1.3,9.4,2.9c3.5,2,6.3,5.3,8.4,9.8c2.1,4.5,3.1,10.6,3.1,18.2V117c0,7.6-1,13.6-3.1,18.2
		c-2.1,4.5-4.9,7.8-8.4,9.8c-2.8,1.7-6,2.6-9.4,2.9V135.6z"/>
</g>
</svg>
