<?xml version="1.0" encoding="utf-8"?>
<!-- Generator: Adobe Illustrator 22.0.0, SVG Export Plug-In . SVG Version: 6.00 Build 0)  -->
<svg version="1.1" id="Layer_1" xmlns="http://www.w3.org/2000/svg" xmlns:xlink="http://www.w3.org/1999/xlink" x="0px" y="0px"
	 viewBox="0 0 425.2 187.5" style="enable-background:new 0 0 425.2 187.5;" xml:space="preserve">
<style type="text/css">
	.st0{fill:none;stroke:#7F95B9;stroke-miterlimit:10;}
	.st1{fill:#7F95B9;}
</style>
<rect x="2" y="0.6" class="st0" width="420.9" height="185.9"/>
<path class="st1" d="M64,147.1c-1.5,0-3.1-0.7-4-1.7s-1.6-2.4-1.6-3.8V43.3c0-2.5,1.5-4.2,2.6-4.8s2.2-0.8,3.4-0.8
	c4.3,0.1,6.2,6.3,6.9,8.1l29.8,70.2V42.2c0-1.5,1.8-4.5,5-4.5c3.3,0,5,3.1,5,4.5v99.8c0,1.5-0.8,3.2-1.8,4c-1,0.7-2,1.1-3.3,1.1
	s-2.4-0.3-3.5-1.4c-1.1-1.1-2-3.3-2.7-4.9L69.6,70.3v71.1c0,1.5-0.7,3-1.6,3.9C67,146.4,65.6,147.1,64,147.1z"/>
<path class="st1" d="M136.4,147.6c-2.4,0-4-0.7-4.8-1.6c-0.9-0.9-2.3-2.5-2.3-5.7V49.8c0-4.4-0.7-7.5,1.9-10.1
	c2.8-2.8,6.3-1.8,10.8-1.9h34.5c0.3,0,2.1-0.1,3.9,1.3c1,0.8,2,3,2,4.3c0,1.5-0.6,3.1-1.9,4.2c-2.2,1.9-3.9,1.6-5.1,1.6h-34.6v43.5
	h25.9c1.2,0,3.4,1.1,4,2.2s1.4,2.3,1.1,4.3c-0.2,1.2-0.5,2.6-1.6,3.5c-0.9,0.8-2.2,1.6-3.5,1.6h-25.9v31.7h34.6
	c2.5,0,3.6-0.4,5.7,1.7c0.9,0.9,1.7,2.5,1.6,4.1c-0.1,1.3-0.6,2.7-1.7,3.8c-1.7,1.9-4.2,1.7-5.6,1.7h-39V147.6z"/>
<g>
	<path class="st1" d="M347.8,50.4h-11.5v86.4h11.5c4.6,0,8.3-1.7,10.8-5.2c2.7-3.5,2.9-8.7,2.9-16.1v-44c0-7.2-0.3-12.6-2.9-16.1
		C356,52.1,352.4,50.4,347.8,50.4z"/>
	<path class="st1" d="M261.9,0.6v186.2h161V0.6H261.9z M300.9,142.4c0,1.9-0.7,3.4-1.7,4.3c-1.1,1-2.3,1.5-3.7,1.5
		c-1.6,0-3-0.8-3.7-1.7c-0.9-0.9-1.5-2.5-1.5-3.8v-78c-0.1-1.6,0.8-3.3,1.7-4.1c0.9-0.7,2-1.4,3.5-1.4s2.8,0.6,3.5,1.3
		c1,0.9,1.8,2.4,1.8,4.2L300.9,142.4L300.9,142.4z M300.3,51.2c-1.3,1.3-2.9,1.9-4.6,1.9c-1.9,0-3.5-0.6-4.7-1.9
		c-1.3-1.3-1.9-2.7-1.9-4.3s0.6-3.1,1.9-4.3s2.9-1.8,4.7-1.8c1.8,0,3.4,0.6,4.6,1.8c1.3,1.2,1.9,2.6,1.9,4.3
		C302.1,48.5,301.5,49.9,300.3,51.2z M373,115.6c0,7.9-1.1,14.3-3.2,19.1c-2.2,4.8-5.5,8.1-9.2,10.3c-3.6,2.2-7.2,3.2-13.3,3.2H328
		c0.2,0-1.2-0.5-2-1.3c-0.8-0.9-1.2-1.8-1.2-3V43.4c0-1.2,0.4-2.2,1.2-3.1c0.8-0.9,1.8-1.3,3.1-1.3h19.7c4.5,0,8.7,1.1,12.3,3.2
		c3.6,2.2,7,6.1,9.2,10.8c2.2,4.8,2.8,10.5,2.8,18.6L373,115.6L373,115.6z"/>
</g>
<g>
	<path class="st1" d="M211.4,135.4c-2.8-0.6-5.4-2.9-6.6-4.7c-2.6-3.8-2.1-8.1-2.1-15V70.8c0-6.9-0.6-11,2.6-15.7
		c1.9-2.7,4.1-3.7,6.1-4.3v-13c-3.4,0.3-6.6,1.3-9.4,2.9c-3.5,2-6.3,5.3-8.4,9.8c-2.1,4.5-3.1,10.6-3.1,18.2v48.1
		c0,7.6,1,13.6,3.1,18.2c2.1,4.5,4.9,7.8,8.4,9.8c2.8,1.7,6,2.6,9.4,2.9V135.4z"/>
</g>
<g>
	<path class="st1" d="M216.8,135.4c2.8-0.6,5.4-2.9,6.6-4.7c2.6-3.8,2.1-8.1,2.1-15V70.8c0-6.9,0.6-11-2.6-15.7
		c-1.9-2.7-4.1-3.7-6.1-4.3v-13c3.4,0.3,6.6,1.3,9.4,2.9c3.5,2,6.3,5.3,8.4,9.8c2.1,4.5,3.1,10.6,3.1,18.2v48.1
		c0,7.6-1,13.6-3.1,18.2c-2.1,4.5-4.9,7.8-8.4,9.8c-2.8,1.7-6,2.6-9.4,2.9V135.4z"/>
</g>
</svg>
